<svg
							xmlns="http://www.w3.org/2000/svg"
							width="32"
							height="32"
							viewBox="0 0 32 32"
							fill="white"
							class="fill-white hover:fill-white/80"
						>
							<path
								fill-rule="evenodd"
								clip-rule="evenodd"
								d="M5.54363 5.53119C11.3252 -0.183573 20.6742 -0.183573 26.4558 5.53119C32.1759 11.3074 32.2374 20.7091 26.4558 26.4239C20.6742 32.1386 11.2637 32.2001 5.54363 26.4239C-0.176458 20.6477 -0.237964 11.246 5.54363 5.53119ZM15.9997 4.9167C9.91058 4.9167 4.92857 9.89407 4.92857 15.9775C4.92857 22.061 9.91058 27.0384 15.9997 27.0384C22.1503 27.0384 27.0708 22.1224 27.0708 15.9775C27.0708 9.83262 22.0888 4.9167 15.9997 4.9167ZM13.3843 9.23142C13.9791 9.23142 14.4612 9.78151 14.4612 10.4601V21.518C14.4612 22.1966 13.9791 22.7467 13.3843 22.7467H11.2305C10.6357 22.7467 10.1535 22.1966 10.1535 21.518V10.4601C10.1535 9.78151 10.6357 9.23142 11.2305 9.23142H13.3843ZM20.7689 9.23142C21.3637 9.23142 21.8459 9.78151 21.8459 10.4601V21.518C21.8459 22.1966 21.3637 22.7467 20.7689 22.7467H18.6151C18.0203 22.7467 17.5382 22.1966 17.5382 21.518V10.4601C17.5382 9.78151 18.0203 9.23142 18.6151 9.23142H20.7689Z"
								fill="inherit"
							/>
						</svg>